<svg xmlns="http://www.w3.org/2000/svg" version="1.1" xmlns:xlink="http://www.w3.org/1999/xlink" xmlns:svgjs="http://svgjs.dev/svgjs" viewBox="0 0 8.256482439197615 4.6137052686737805"><g transform="matrix(0.8113834022437444,0,0,0.8113834022437444,2.1062872514396607,1.6504803429854396)"><g transform="matrix(1,0,0,1,0,0)"><g clip-path="url(#SvgjsClipPath117165)"><path d=" M -1.1000000000000005 -0.9616402677210367 L 6.083966796875001 -0.9616402677210367 L 6.083966796875001 1.6666402677210368 L -1.1000000000000005 1.6666402677210368 Z" fill="#006fbf" transform="matrix(1,0,0,1,0,0)" fill-rule="nonzero"></path></g></g><g transform="matrix(1,0,0,1,0,0)"><path d=" M 0.252 0.5549999999999999 L 0.47100000000000003 0.5549999999999999 L 0.47100000000000003 0.705 L 0.056 0.705 L 0.056 0 L 0.252 0 L 0.252 0.5549999999999999 M 0.65652783203125 0.6769999999999999 Q 0.59002783203125 0.6419999999999999 0.5520278320312499 0.577 Q 0.5140278320312499 0.512 0.5140278320312499 0.42399999999999993 Q 0.5140278320312499 0.33699999999999997 0.5525278320312499 0.27199999999999996 Q 0.59102783203125 0.20699999999999996 0.65752783203125 0.17199999999999993 Q 0.72402783203125 0.1369999999999999 0.80802783203125 0.1369999999999999 Q 0.89202783203125 0.1369999999999999 0.95852783203125 0.17199999999999993 Q 1.02502783203125 0.20699999999999996 1.06352783203125 0.27199999999999996 Q 1.10202783203125 0.33699999999999997 1.10202783203125 0.42399999999999993 Q 1.10202783203125 0.5109999999999999 1.06352783203125 0.5765 Q 1.02502783203125 0.6419999999999999 0.95802783203125 0.6769999999999999 Q 0.8910278320312499 0.712 0.80702783203125 0.712 Q 0.72302783203125 0.712 0.65652783203125 0.6769999999999999 M 0.87552783203125 0.5115 Q 0.9030278320312499 0.481 0.9030278320312499 0.42399999999999993 Q 0.9030278320312499 0.36699999999999994 0.87552783203125 0.33699999999999997 Q 0.84802783203125 0.30699999999999994 0.80802783203125 0.30699999999999994 Q 0.7680278320312499 0.30699999999999994 0.74102783203125 0.33699999999999997 Q 0.71402783203125 0.36699999999999994 0.71402783203125 0.42399999999999993 Q 0.71402783203125 0.482 0.7400278320312499 0.512 Q 0.7660278320312499 0.5419999999999999 0.80702783203125 0.5419999999999999 Q 0.84802783203125 0.5419999999999999 0.87552783203125 0.5115 M 1.70201416015625 0.2034999999999999 Q 1.7590141601562501 0.26799999999999996 1.7590141601562501 0.37799999999999995 L 1.7590141601562501 0.705 L 1.56301416015625 0.705 L 1.56301416015625 0.40399999999999997 Q 1.56301416015625 0.3559999999999999 1.53801416015625 0.32849999999999996 Q 1.5130141601562501 0.30099999999999993 1.47101416015625 0.30099999999999993 Q 1.42701416015625 0.30099999999999993 1.40201416015625 0.32849999999999996 Q 1.37701416015625 0.3559999999999999 1.37701416015625 0.40399999999999997 L 1.37701416015625 0.705 L 1.18101416015625 0.705 L 1.18101416015625 0.1439999999999999 L 1.37701416015625 0.1439999999999999 L 1.37701416015625 0.22399999999999998 Q 1.40301416015625 0.18599999999999994 1.44701416015625 0.16249999999999998 Q 1.4910141601562499 0.1389999999999999 1.54801416015625 0.1389999999999999 Q 1.64501416015625 0.1389999999999999 1.70201416015625 0.2034999999999999 M 2.1724882812499997 0.15999999999999992 Q 2.21498828125 0.18299999999999994 2.23798828125 0.22199999999999998 L 2.23798828125 0.1439999999999999 L 2.43398828125 0.1439999999999999 L 2.43398828125 0.699 Q 2.43398828125 0.7779999999999999 2.4039882812499997 0.8414999999999999 Q 2.37398828125 0.905 2.31048828125 0.943 Q 2.2469882812499997 0.981 2.1499882812499997 0.981 Q 2.01998828125 0.981 1.94198828125 0.9199999999999999 Q 1.86398828125 0.859 1.8529882812499998 0.754 L 2.04598828125 0.754 Q 2.05198828125 0.7809999999999999 2.07598828125 0.7959999999999999 Q 2.09998828125 0.8109999999999999 2.1379882812499997 0.8109999999999999 Q 2.23798828125 0.8109999999999999 2.23798828125 0.699 L 2.23798828125 0.627 Q 2.21498828125 0.6659999999999999 2.1724882812499997 0.689 Q 2.1299882812499997 0.712 2.07298828125 0.712 Q 2.00598828125 0.712 1.9514882812499998 0.6769999999999999 Q 1.8969882812499999 0.6419999999999999 1.86548828125 0.5765 Q 1.83398828125 0.5109999999999999 1.83398828125 0.42399999999999993 Q 1.83398828125 0.33699999999999997 1.86548828125 0.27199999999999996 Q 1.8969882812499999 0.20699999999999996 1.9514882812499998 0.17199999999999993 Q 2.00598828125 0.1369999999999999 2.07298828125 0.1369999999999999 Q 2.1299882812499997 0.1369999999999999 2.1724882812499997 0.15999999999999992 M 2.2084882812499997 0.33899999999999997 Q 2.1789882812499997 0.30799999999999994 2.13598828125 0.30799999999999994 Q 2.09198828125 0.30799999999999994 2.06298828125 0.33849999999999997 Q 2.03398828125 0.36899999999999994 2.03398828125 0.42399999999999993 Q 2.03398828125 0.478 2.06298828125 0.5095 Q 2.09198828125 0.5409999999999999 2.13598828125 0.5409999999999999 Q 2.1789882812499997 0.5409999999999999 2.2084882812499997 0.51 Q 2.23798828125 0.479 2.23798828125 0.42399999999999993 Q 2.23798828125 0.36999999999999994 2.2084882812499997 0.33899999999999997 M 3.2659599609375 0 L 3.2659599609375 0.15599999999999992 L 3.0779599609375 0.15599999999999992 L 3.0779599609375 0.705 L 2.8819599609375 0.705 L 2.8819599609375 0.15599999999999992 L 2.6959599609375 0.15599999999999992 L 2.6959599609375 0 L 3.2659599609375 0 M 3.4484638671875003 0.6769999999999999 Q 3.3819638671875003 0.6419999999999999 3.3439638671875 0.577 Q 3.3059638671875002 0.512 3.3059638671875002 0.42399999999999993 Q 3.3059638671875002 0.33699999999999997 3.3444638671875 0.27199999999999996 Q 3.3829638671875 0.20699999999999996 3.4494638671875 0.17199999999999993 Q 3.5159638671875 0.1369999999999999 3.5999638671875003 0.1369999999999999 Q 3.6839638671875004 0.1369999999999999 3.7504638671875004 0.17199999999999993 Q 3.8169638671875004 0.20699999999999996 3.8554638671875003 0.27199999999999996 Q 3.8939638671875003 0.33699999999999997 3.8939638671875003 0.42399999999999993 Q 3.8939638671875003 0.5109999999999999 3.8554638671875003 0.5765 Q 3.8169638671875004 0.6419999999999999 3.7499638671875 0.6769999999999999 Q 3.6829638671875005 0.712 3.5989638671875004 0.712 Q 3.5149638671875003 0.712 3.4484638671875003 0.6769999999999999 M 3.6674638671875 0.5115 Q 3.6949638671875 0.481 3.6949638671875 0.42399999999999993 Q 3.6949638671875 0.36699999999999994 3.6674638671875 0.33699999999999997 Q 3.6399638671875003 0.30699999999999994 3.5999638671875003 0.30699999999999994 Q 3.5599638671875002 0.30699999999999994 3.5329638671875 0.33699999999999997 Q 3.5059638671875004 0.36699999999999994 3.5059638671875004 0.42399999999999993 Q 3.5059638671875004 0.482 3.5319638671875 0.512 Q 3.5579638671875005 0.5419999999999999 3.5989638671875004 0.5419999999999999 Q 3.6399638671875003 0.5419999999999999 3.6674638671875 0.5115 M 4.8724501953125 0.20299999999999996 Q 4.9329501953125 0.26699999999999996 4.9329501953125 0.37799999999999995 L 4.9329501953125 0.705 L 4.736950195312501 0.705 L 4.736950195312501 0.40399999999999997 Q 4.736950195312501 0.35899999999999993 4.7119501953125 0.33399999999999996 Q 4.6869501953125 0.30899999999999994 4.643950195312501 0.30899999999999994 Q 4.6009501953125005 0.30899999999999994 4.5759501953125 0.33399999999999996 Q 4.550950195312501 0.35899999999999993 4.550950195312501 0.40399999999999997 L 4.550950195312501 0.705 L 4.3549501953125 0.705 L 4.3549501953125 0.40399999999999997 Q 4.3549501953125 0.35899999999999993 4.3304501953125 0.33399999999999996 Q 4.305950195312501 0.30899999999999994 4.2629501953125 0.30899999999999994 Q 4.2189501953125 0.30899999999999994 4.1939501953125005 0.33399999999999996 Q 4.1689501953125 0.35899999999999993 4.1689501953125 0.40399999999999997 L 4.1689501953125 0.705 L 3.9729501953125004 0.705 L 3.9729501953125004 0.1439999999999999 L 4.1689501953125 0.1439999999999999 L 4.1689501953125 0.21799999999999997 Q 4.194950195312501 0.18199999999999994 4.2364501953125 0.16049999999999998 Q 4.2779501953125 0.1389999999999999 4.3319501953125 0.1389999999999999 Q 4.393950195312501 0.1389999999999999 4.4424501953125 0.16599999999999993 Q 4.4909501953125 0.19299999999999995 4.518950195312501 0.24199999999999994 Q 4.5489501953125 0.19599999999999995 4.5979501953125 0.16749999999999998 Q 4.646950195312501 0.1389999999999999 4.7059501953125 0.1389999999999999 Q 4.8119501953125 0.1389999999999999 4.8724501953125 0.20299999999999996" fill="#ffffff" fill-rule="nonzero"></path></g><g transform="matrix(1,0,0,1,0,0)"><path d=" M -0.46572416548295414 2.1982766313574 L -0.5737241654829541 2.5795493586301275 L -0.6162696200284087 2.5795493586301275 L -0.7122696200284087 2.2544584495392184 L -0.8104514382102268 2.5795493586301275 L -0.8519059836647723 2.580094813175582 L -0.9577241654829541 2.1982766313574 L -0.9168150745738632 2.1982766313574 L -0.829542347301136 2.5326402677210367 L -0.7319059836647723 2.1982766313574 L -0.6893605291193178 2.1982766313574 L -0.5944514382102268 2.5326402677210367 L -0.506633256392045 2.1982766313574 L -0.46572416548295414 2.1982766313574 M -0.40653302556818155 2.3496402677210364 Q -0.3882602982954543 2.315003904084673 -0.3558057528409088 2.296185722266491 Q -0.32335120738636336 2.277367540448309 -0.28244211647727246 2.277367540448309 Q -0.2398966619318179 2.277367540448309 -0.2090784801136361 2.297003904084673 Q -0.17826029829545426 2.3166402677210365 -0.16462393465909064 2.347185722266491 L -0.16462393465909064 2.2817311768119457 L -0.12644211647727244 2.2817311768119457 L -0.12644211647727244 2.5795493586301275 L -0.16462393465909064 2.5795493586301275 L -0.16462393465909064 2.5135493586301276 Q -0.17880575284090883 2.544094813175582 -0.20962393465909065 2.564003904084673 Q -0.24044211647727246 2.583912994993764 -0.282987571022727 2.583912994993764 Q -0.32335120738636336 2.583912994993764 -0.3558057528409088 2.5648220859028545 Q -0.3882602982954543 2.5457311768119455 -0.40653302556818155 2.5108220859028547 Q -0.4248057528409088 2.475912994993764 -0.4248057528409088 2.430094813175582 Q -0.4248057528409088 2.3842766313574 -0.40653302556818155 2.3496402677210364 M -0.1793512073863634 2.3673675404483094 Q -0.1940784801136361 2.340094813175582 -0.21944211647727246 2.325367540448309 Q -0.24480575284090883 2.3106402677210367 -0.2753512073863634 2.3106402677210367 Q -0.306987571022727 2.3106402677210367 -0.3320784801136361 2.3248220859028548 Q -0.3571693892045452 2.339003904084673 -0.37162393465909066 2.366003904084673 Q -0.3860784801136361 2.393003904084673 -0.3860784801136361 2.430094813175582 Q -0.3860784801136361 2.4666402677210364 -0.37162393465909066 2.494185722266491 Q -0.3571693892045452 2.5217311768119455 -0.3320784801136361 2.536185722266491 Q -0.306987571022727 2.5506402677210365 -0.2753512073863634 2.5506402677210365 Q -0.24480575284090883 2.5506402677210365 -0.21944211647727246 2.535912994993764 Q -0.1940784801136361 2.521185722266491 -0.1793512073863634 2.4939129949937637 Q -0.16462393465909064 2.4666402677210364 -0.16462393465909064 2.4306402677210364 Q -0.16462393465909064 2.3946402677210363 -0.1793512073863634 2.3673675404483094 M 0.037460316051136616 2.291549358630127 Q 0.06336940696022753 2.2762766313574003 0.10100577059659116 2.2762766313574003 L 0.10100577059659116 2.316094813175582 L 0.09064213423295481 2.316094813175582 Q 0.04918758877840934 2.316094813175582 0.024096679687500247 2.3384584495392184 Q -0.0009942294034088472 2.360822085902855 -0.0009942294034088472 2.413185722266491 L -0.0009942294034088472 2.5795493586301275 L -0.039176047585227025 2.5795493586301275 L -0.039176047585227025 2.2817311768119457 L -0.0009942294034088472 2.2817311768119457 L -0.0009942294034088472 2.3346402677210367 Q 0.011551225142045707 2.3068220859028545 0.037460316051136616 2.291549358630127 M 0.7476346768465911 2.3092766313574002 Q 0.7806346768465912 2.3422766313574 0.7806346768465912 2.4050039040846727 L 0.7806346768465912 2.5795493586301275 L 0.7429983132102276 2.5795493586301275 L 0.7429983132102276 2.4093675404483093 Q 0.7429983132102276 2.360822085902855 0.7195437677556821 2.335185722266491 Q 0.6960892223011366 2.3095493586301274 0.6557255859375003 2.3095493586301274 Q 0.6137255859375003 2.3095493586301274 0.5886346768465912 2.337367540448309 Q 0.563543767755682 2.365185722266491 0.563543767755682 2.418094813175582 L 0.563543767755682 2.5795493586301275 L 0.5259074041193185 2.5795493586301275 L 0.5259074041193185 2.4093675404483093 Q 0.5259074041193185 2.360822085902855 0.502452858664773 2.335185722266491 Q 0.47899831321022757 2.3095493586301274 0.43808922230113667 2.3095493586301274 Q 0.39608922230113663 2.3095493586301274 0.3709983132102275 2.337367540448309 Q 0.3459074041193184 2.365185722266491 0.3459074041193184 2.418094813175582 L 0.3459074041193184 2.5795493586301275 L 0.30772558593750027 2.5795493586301275 L 0.30772558593750027 2.2817311768119457 L 0.3459074041193184 2.2817311768119457 L 0.3459074041193184 2.333003904084673 Q 0.3600892223011366 2.305185722266491 0.3862710404829548 2.2907311768119456 Q 0.412452858664773 2.2762766313574003 0.4446346768465912 2.2762766313574003 Q 0.4833619495738639 2.2762766313574003 0.5125437677556821 2.2948220859028545 Q 0.5417255859375003 2.313367540448309 0.5548164950284094 2.349367540448309 Q 0.5668164950284094 2.313912994993764 0.5959983132102276 2.295094813175582 Q 0.6251801313920458 2.2762766313574003 0.6622710404829548 2.2762766313574003 Q 0.7146346768465912 2.2762766313574003 0.7476346768465911 2.3092766313574002 M 0.8659833984375002 2.3496402677210364 Q 0.8842561257102275 2.315003904084673 0.9167106711647729 2.296185722266491 Q 0.9491652166193184 2.277367540448309 0.9900743075284093 2.277367540448309 Q 1.032619762073864 2.277367540448309 1.0634379438920456 2.297003904084673 Q 1.0942561257102275 2.3166402677210365 1.1078924893465911 2.347185722266491 L 1.1078924893465911 2.2817311768119457 L 1.1460743075284094 2.2817311768119457 L 1.1460743075284094 2.5795493586301275 L 1.1078924893465911 2.5795493586301275 L 1.1078924893465911 2.5135493586301276 Q 1.0937106711647728 2.544094813175582 1.0628924893465912 2.564003904084673 Q 1.0320743075284093 2.583912994993764 0.9895288529829548 2.583912994993764 Q 0.9491652166193184 2.583912994993764 0.9167106711647729 2.5648220859028545 Q 0.8842561257102275 2.5457311768119455 0.8659833984375002 2.5108220859028547 Q 0.8477106711647729 2.475912994993764 0.8477106711647729 2.430094813175582 Q 0.8477106711647729 2.3842766313574 0.8659833984375002 2.3496402677210364 M 1.0931652166193184 2.3673675404483094 Q 1.0784379438920457 2.340094813175582 1.0530743075284092 2.325367540448309 Q 1.027710671164773 2.3106402677210367 0.9971652166193183 2.3106402677210367 Q 0.9655288529829548 2.3106402677210367 0.9404379438920456 2.3248220859028548 Q 0.9153470348011365 2.339003904084673 0.9008924893465912 2.366003904084673 Q 0.8864379438920457 2.393003904084673 0.8864379438920457 2.430094813175582 Q 0.8864379438920457 2.4666402677210364 0.9008924893465912 2.494185722266491 Q 0.9153470348011365 2.5217311768119455 0.9404379438920456 2.536185722266491 Q 0.9655288529829548 2.5506402677210365 0.9971652166193183 2.5506402677210365 Q 1.027710671164773 2.5506402677210365 1.0530743075284092 2.535912994993764 Q 1.0784379438920457 2.521185722266491 1.0931652166193184 2.4939129949937637 Q 1.1078924893465911 2.4666402677210364 1.1078924893465911 2.4306402677210364 Q 1.1078924893465911 2.3946402677210363 1.0931652166193184 2.3673675404483094 M 1.3099767400568183 2.291549358630127 Q 1.3358858309659092 2.2762766313574003 1.3735221946022729 2.2762766313574003 L 1.3735221946022729 2.316094813175582 L 1.3631585582386365 2.316094813175582 Q 1.321704012784091 2.316094813175582 1.2966131036931818 2.3384584495392184 Q 1.2715221946022728 2.360822085902855 1.2715221946022728 2.413185722266491 L 1.2715221946022728 2.5795493586301275 L 1.2333403764204547 2.5795493586301275 L 1.2333403764204547 2.2817311768119457 L 1.2715221946022728 2.2817311768119457 L 1.2715221946022728 2.3346402677210367 Q 1.2840676491477274 2.3068220859028545 1.3099767400568183 2.291549358630127 M 1.5917037464488637 2.5795493586301275 L 1.468976473721591 2.4459129949937637 L 1.468976473721591 2.5795493586301275 L 1.4307946555397728 2.5795493586301275 L 1.4307946555397728 2.1759129949937637 L 1.468976473721591 2.1759129949937637 L 1.468976473721591 2.4148220859028546 L 1.588976473721591 2.2817311768119457 L 1.6424310191761364 2.2817311768119457 L 1.5011582919034092 2.430094813175582 L 1.6435219282670455 2.5795493586301275 L 1.5917037464488637 2.5795493586301275 M 1.9609658203125 2.4453675404483093 L 1.7138749112215907 2.4453675404483093 Q 1.7155112748579544 2.4791857222664913 1.7302385475852273 2.5031857222664913 Q 1.7449658203125 2.5271857222664913 1.7689658203125 2.5394584495392185 Q 1.7929658203124998 2.5517311768119457 1.8213294566761362 2.5517311768119457 Q 1.8584203657670453 2.5517311768119457 1.8837840021306818 2.5337311768119455 Q 1.9091476384943182 2.5157311768119457 1.9173294566761363 2.485185722266491 L 1.9576930930397727 2.485185722266491 Q 1.9467840021306817 2.5288220859028545 1.911056729403409 2.5563675404483095 Q 1.8753294566761363 2.583912994993764 1.8213294566761362 2.583912994993764 Q 1.7793294566761364 2.583912994993764 1.746056729403409 2.565094813175582 Q 1.7127840021306817 2.5462766313574003 1.6939658203124999 2.5116402677210368 Q 1.675147638494318 2.4770039040846727 1.675147638494318 2.4306402677210364 Q 1.675147638494318 2.3842766313574 1.6936930930397727 2.349367540448309 Q 1.7122385475852273 2.3144584495392184 1.7455112748579544 2.295912994993764 Q 1.7787840021306818 2.277367540448309 1.8213294566761362 2.277367540448309 Q 1.8638749112215909 2.277367540448309 1.8957840021306818 2.295912994993764 Q 1.9276930930397727 2.3144584495392184 1.9448749112215908 2.3458220859028547 Q 1.962056729403409 2.377185722266491 1.962056729403409 2.4153675404483095 Q 1.962056729403409 2.435003904084673 1.9609658203125 2.4453675404483093 M 1.9099658203124998 2.3575493586301275 Q 1.896056729403409 2.334094813175582 1.872056729403409 2.322094813175582 Q 1.848056729403409 2.310094813175582 1.8196930930397728 2.310094813175582 Q 1.7771476384943181 2.310094813175582 1.747147638494318 2.337367540448309 Q 1.717147638494318 2.3646402677210365 1.7138749112215907 2.4142766313574002 L 1.9233294566761363 2.4142766313574002 Q 1.923874911221591 2.381003904084673 1.9099658203124998 2.3575493586301275 M 2.0815163352272728 2.313912994993764 L 2.0815163352272728 2.4988220859028547 Q 2.0815163352272728 2.526094813175582 2.091879971590909 2.5364584495392184 Q 2.1022436079545455 2.5468220859028547 2.1284254261363635 2.5468220859028547 L 2.1633345170454543 2.5468220859028547 L 2.1633345170454543 2.5795493586301275 L 2.1224254261363633 2.5795493586301275 Q 2.082061789772727 2.5795493586301275 2.0624254261363637 2.5607311768119456 Q 2.0427890625 2.5419129949937638 2.0427890625 2.4988220859028547 L 2.0427890625 2.313912994993764 L 2.0013345170454544 2.313912994993764 L 2.0013345170454544 2.2817311768119457 L 2.0427890625 2.2817311768119457 L 2.0427890625 2.2070039040846727 L 2.0815163352272728 2.2070039040846727 L 2.0815163352272728 2.2817311768119457 L 2.1633345170454543 2.2817311768119457 L 2.1633345170454543 2.313912994993764 L 2.0815163352272728 2.313912994993764 M 2.2255261896306817 2.217367540448309 Q 2.2173443714488634 2.2091857222664912 2.2173443714488634 2.1971857222664912 Q 2.2173443714488634 2.185185722266491 2.2255261896306817 2.1772766313574 Q 2.2337080078125 2.1693675404483095 2.245162553267045 2.1693675404483095 Q 2.2566170987215908 2.1693675404483095 2.264798916903409 2.1772766313574 Q 2.2729807350852274 2.185185722266491 2.2729807350852274 2.1971857222664912 Q 2.2729807350852274 2.2091857222664912 2.264798916903409 2.217367540448309 Q 2.2566170987215908 2.2255493586301274 2.245162553267045 2.2255493586301274 Q 2.2337080078125 2.2255493586301274 2.2255261896306817 2.217367540448309 M 2.2642534623579547 2.2817311768119457 L 2.2642534623579547 2.5795493586301275 L 2.226071644176136 2.5795493586301275 L 2.226071644176136 2.2817311768119457 L 2.2642534623579547 2.2817311768119457 M 2.5778919566761362 2.3092766313574002 Q 2.611710138494318 2.3422766313574 2.611710138494318 2.4050039040846727 L 2.611710138494318 2.5795493586301275 L 2.5740737748579545 2.5795493586301275 L 2.5740737748579545 2.4093675404483093 Q 2.5740737748579545 2.360822085902855 2.5498010475852273 2.335185722266491 Q 2.5255283203125 2.3095493586301274 2.4835283203125 2.3095493586301274 Q 2.4404374112215907 2.3095493586301274 2.414801047585227 2.336822085902855 Q 2.389164683948864 2.364094813175582 2.389164683948864 2.417003904084673 L 2.389164683948864 2.5795493586301275 L 2.3509828657670453 2.5795493586301275 L 2.3509828657670453 2.2817311768119457 L 2.389164683948864 2.2817311768119457 L 2.389164683948864 2.332458449539218 Q 2.403346502130682 2.305185722266491 2.4300737748579544 2.2907311768119456 Q 2.4568010475852273 2.2762766313574003 2.4906192294034093 2.2762766313574003 Q 2.5440737748579547 2.2762766313574003 2.5778919566761362 2.3092766313574002 M 2.894253196022727 2.297003904084673 Q 2.9253441051136364 2.3166402677210365 2.9389804687499996 2.3466402677210367 L 2.9389804687499996 2.2817311768119457 L 2.977162286931818 2.2817311768119457 L 2.977162286931818 2.587185722266491 Q 2.977162286931818 2.628094813175582 2.959435014204545 2.659731176811946 Q 2.9417077414772725 2.6913675404483093 2.910071377840909 2.7085493586301275 Q 2.878435014204545 2.7257311768119457 2.838071377840909 2.7257311768119457 Q 2.7807986505681814 2.7257311768119457 2.7428895596590905 2.6984584495392183 Q 2.7049804687499996 2.671185722266491 2.6957077414772725 2.6242766313574 L 2.7333441051136362 2.6242766313574 Q 2.743162286931818 2.6553675404483092 2.7707077414772727 2.673912994993764 Q 2.7982531960227273 2.6924584495392185 2.838071377840909 2.6924584495392185 Q 2.86698046875 2.6924584495392185 2.889889559659091 2.680185722266491 Q 2.9127986505681815 2.6679129949937637 2.925889559659091 2.6439129949937636 Q 2.9389804687499996 2.6199129949937636 2.9389804687499996 2.587185722266491 L 2.9389804687499996 2.5135493586301276 Q 2.9247986505681816 2.544094813175582 2.8939804687499997 2.564003904084673 Q 2.863162286931818 2.583912994993764 2.821162286931818 2.583912994993764 Q 2.780253196022727 2.583912994993764 2.7477986505681815 2.5648220859028545 Q 2.715344105113636 2.5457311768119455 2.697071377840909 2.5108220859028547 Q 2.6787986505681816 2.475912994993764 2.6787986505681816 2.430094813175582 Q 2.6787986505681816 2.3842766313574 2.697071377840909 2.3496402677210364 Q 2.715344105113636 2.315003904084673 2.7477986505681815 2.296185722266491 Q 2.780253196022727 2.277367540448309 2.821162286931818 2.277367540448309 Q 2.863162286931818 2.277367540448309 2.894253196022727 2.297003904084673 M 2.924253196022727 2.3673675404483094 Q 2.9095259232954542 2.340094813175582 2.884162286931818 2.325367540448309 Q 2.8587986505681817 2.3106402677210367 2.828253196022727 2.3106402677210367 Q 2.7966168323863636 2.3106402677210367 2.7715259232954543 2.3248220859028548 Q 2.7464350142045455 2.339003904084673 2.73198046875 2.366003904084673 Q 2.7175259232954545 2.393003904084673 2.7175259232954545 2.430094813175582 Q 2.7175259232954545 2.4666402677210364 2.73198046875 2.494185722266491 Q 2.7464350142045455 2.5217311768119455 2.7715259232954543 2.536185722266491 Q 2.7966168323863636 2.5506402677210365 2.828253196022727 2.5506402677210365 Q 2.8587986505681817 2.5506402677210365 2.884162286931818 2.535912994993764 Q 2.9095259232954542 2.521185722266491 2.924253196022727 2.4939129949937637 Q 2.9389804687499996 2.4666402677210364 2.9389804687499996 2.4306402677210364 Q 2.9389804687499996 2.3946402677210363 2.924253196022727 2.3673675404483094 M 3.3311484375 2.313912994993764 L 3.2618757102272724 2.313912994993764 L 3.2618757102272724 2.5795493586301275 L 3.2236938920454543 2.5795493586301275 L 3.2236938920454543 2.313912994993764 L 3.182239346590909 2.313912994993764 L 3.182239346590909 2.2817311768119457 L 3.2236938920454543 2.2817311768119457 L 3.2236938920454543 2.261003904084673 Q 3.2236938920454543 2.2124584495392186 3.248512073863636 2.1895493586301273 Q 3.273330255681818 2.1666402677210366 3.3289666193181815 2.1666402677210366 L 3.3289666193181815 2.1993675404483093 Q 3.2918757102272727 2.1993675404483093 3.2768757102272725 2.2135493586301274 Q 3.2618757102272724 2.227731176811946 3.2618757102272724 2.261003904084673 L 3.2618757102272724 2.2817311768119457 L 3.3311484375 2.2817311768119457 L 3.3311484375 2.313912994993764 M 3.4459732776988634 2.565094813175582 Q 3.412427823153409 2.5462766313574003 3.3930641867897724 2.5116402677210368 Q 3.373700550426136 2.4770039040846727 3.373700550426136 2.4306402677210364 Q 3.373700550426136 2.3842766313574 3.3933369140625 2.3496402677210364 Q 3.4129732776988635 2.315003904084673 3.4467914595170455 2.296185722266491 Q 3.480609641335227 2.277367540448309 3.5226096413352272 2.277367540448309 Q 3.564609641335227 2.277367540448309 3.5987005504261362 2.296185722266491 Q 3.6327914595170454 2.315003904084673 3.6521550958806817 2.3496402677210364 Q 3.671518732244318 2.3842766313574 3.671518732244318 2.4306402677210364 Q 3.671518732244318 2.4764584495392183 3.6518823686079545 2.511367540448309 Q 3.6322460049715906 2.5462766313574003 3.5978823686079546 2.565094813175582 Q 3.5635187322443183 2.583912994993764 3.521518732244318 2.583912994993764 Q 3.479518732244318 2.583912994993764 3.4459732776988634 2.565094813175582 M 3.5760641867897727 2.5372766313574 Q 3.6011550958806815 2.523912994993764 3.6167005504261365 2.496912994993764 Q 3.6322460049715906 2.4699129949937637 3.6322460049715906 2.4306402677210364 Q 3.6322460049715906 2.3913675404483095 3.6169732776988637 2.3643675404483093 Q 3.6017005504261363 2.337367540448309 3.576609641335227 2.3240039040846727 Q 3.5515187322443182 2.3106402677210367 3.5220641867897724 2.3106402677210367 Q 3.492609641335227 2.3106402677210367 3.467518732244318 2.3240039040846727 Q 3.442427823153409 2.337367540448309 3.4274278231534088 2.3643675404483093 Q 3.412427823153409 2.3913675404483095 3.412427823153409 2.4306402677210364 Q 3.412427823153409 2.4699129949937637 3.4274278231534088 2.496912994993764 Q 3.442427823153409 2.523912994993764 3.467246004971591 2.5372766313574 Q 3.4920641867897726 2.5506402677210365 3.521518732244318 2.5506402677210365 Q 3.5509732776988634 2.5506402677210365 3.5760641867897727 2.5372766313574 M 3.8179889914772724 2.291549358630127 Q 3.8438980823863633 2.2762766313574003 3.881534446022727 2.2762766313574003 L 3.881534446022727 2.316094813175582 L 3.8711708096590907 2.316094813175582 Q 3.8297162642045453 2.316094813175582 3.804625355113636 2.3384584495392184 Q 3.779534446022727 2.360822085902855 3.779534446022727 2.413185722266491 L 3.779534446022727 2.5795493586301275 L 3.7413526278409086 2.5795493586301275 L 3.7413526278409086 2.2817311768119457 L 3.779534446022727 2.2817311768119457 L 3.779534446022727 2.3346402677210367 Q 3.7920799005681816 2.3068220859028545 3.8179889914772724 2.291549358630127 M 4.286254261363636 2.297003904084673 Q 4.317345170454545 2.3166402677210365 4.330981534090909 2.3466402677210367 L 4.330981534090909 2.2817311768119457 L 4.369163352272727 2.2817311768119457 L 4.369163352272727 2.587185722266491 Q 4.369163352272727 2.628094813175582 4.351436079545454 2.659731176811946 Q 4.333708806818182 2.6913675404483093 4.302072443181818 2.7085493586301275 Q 4.270436079545455 2.7257311768119457 4.230072443181818 2.7257311768119457 Q 4.172799715909091 2.7257311768119457 4.134890625 2.6984584495392183 Q 4.096981534090909 2.671185722266491 4.087708806818182 2.6242766313574 L 4.125345170454545 2.6242766313574 Q 4.135163352272727 2.6553675404483092 4.1627088068181815 2.673912994993764 Q 4.190254261363636 2.6924584495392185 4.230072443181818 2.6924584495392185 Q 4.258981534090909 2.6924584495392185 4.281890625 2.680185722266491 Q 4.304799715909091 2.6679129949937637 4.3178906249999995 2.6439129949937636 Q 4.330981534090909 2.6199129949937636 4.330981534090909 2.587185722266491 L 4.330981534090909 2.5135493586301276 Q 4.316799715909091 2.544094813175582 4.285981534090909 2.564003904084673 Q 4.255163352272727 2.583912994993764 4.213163352272727 2.583912994993764 Q 4.172254261363636 2.583912994993764 4.139799715909091 2.5648220859028545 Q 4.107345170454545 2.5457311768119455 4.089072443181818 2.5108220859028547 Q 4.070799715909091 2.475912994993764 4.070799715909091 2.430094813175582 Q 4.070799715909091 2.3842766313574 4.089072443181818 2.3496402677210364 Q 4.107345170454545 2.315003904084673 4.139799715909091 2.296185722266491 Q 4.172254261363636 2.277367540448309 4.213163352272727 2.277367540448309 Q 4.255163352272727 2.277367540448309 4.286254261363636 2.297003904084673 M 4.316254261363636 2.3673675404483094 Q 4.301526988636364 2.340094813175582 4.276163352272727 2.325367540448309 Q 4.250799715909091 2.3106402677210367 4.220254261363636 2.3106402677210367 Q 4.188617897727273 2.3106402677210367 4.163526988636364 2.3248220859028548 Q 4.138436079545454 2.339003904084673 4.123981534090909 2.366003904084673 Q 4.109526988636364 2.393003904084673 4.109526988636364 2.430094813175582 Q 4.109526988636364 2.4666402677210364 4.123981534090909 2.494185722266491 Q 4.138436079545454 2.5217311768119455 4.163526988636364 2.536185722266491 Q 4.188617897727273 2.5506402677210365 4.220254261363636 2.5506402677210365 Q 4.250799715909091 2.5506402677210365 4.276163352272727 2.535912994993764 Q 4.301526988636364 2.521185722266491 4.316254261363636 2.4939129949937637 Q 4.330981534090909 2.4666402677210364 4.330981534090909 2.4306402677210364 Q 4.330981534090909 2.3946402677210363 4.316254261363636 2.3673675404483094 M 4.457247602982955 2.3496402677210364 Q 4.475520330255682 2.315003904084673 4.507974875710228 2.296185722266491 Q 4.540429421164773 2.277367540448309 4.581338512073864 2.277367540448309 Q 4.623883966619318 2.277367540448309 4.6547021484375 2.297003904084673 Q 4.685520330255682 2.3166402677210365 4.6991566938920455 2.347185722266491 L 4.6991566938920455 2.2817311768119457 L 4.737338512073864 2.2817311768119457 L 4.737338512073864 2.5795493586301275 L 4.6991566938920455 2.5795493586301275 L 4.6991566938920455 2.5135493586301276 Q 4.684974875710227 2.544094813175582 4.654156693892046 2.564003904084673 Q 4.623338512073864 2.583912994993764 4.5807930575284095 2.583912994993764 Q 4.540429421164773 2.583912994993764 4.507974875710228 2.5648220859028545 Q 4.475520330255682 2.5457311768119455 4.457247602982955 2.5108220859028547 Q 4.438974875710228 2.475912994993764 4.438974875710228 2.430094813175582 Q 4.438974875710228 2.3842766313574 4.457247602982955 2.3496402677210364 M 4.684429421164773 2.3673675404483094 Q 4.6697021484375005 2.340094813175582 4.644338512073864 2.325367540448309 Q 4.618974875710228 2.3106402677210367 4.588429421164773 2.3106402677210367 Q 4.5567930575284095 2.3106402677210367 4.531702148437501 2.3248220859028548 Q 4.506611239346591 2.339003904084673 4.492156693892046 2.366003904084673 Q 4.4777021484375 2.393003904084673 4.4777021484375 2.430094813175582 Q 4.4777021484375 2.4666402677210364 4.492156693892046 2.494185722266491 Q 4.506611239346591 2.5217311768119455 4.531702148437501 2.536185722266491 Q 4.5567930575284095 2.5506402677210365 4.588429421164773 2.5506402677210365 Q 4.618974875710228 2.5506402677210365 4.644338512073864 2.535912994993764 Q 4.6697021484375005 2.521185722266491 4.684429421164773 2.4939129949937637 Q 4.6991566938920455 2.4666402677210364 4.6991566938920455 2.4306402677210364 Q 4.6991566938920455 2.3946402677210363 4.684429421164773 2.3673675404483094 M 5.264513671875001 2.3092766313574002 Q 5.297513671875 2.3422766313574 5.297513671875 2.4050039040846727 L 5.297513671875 2.5795493586301275 L 5.259877308238637 2.5795493586301275 L 5.259877308238637 2.4093675404483093 Q 5.259877308238637 2.360822085902855 5.236422762784091 2.335185722266491 Q 5.212968217329546 2.3095493586301274 5.17260458096591 2.3095493586301274 Q 5.13060458096591 2.3095493586301274 5.105513671875 2.337367540448309 Q 5.080422762784091 2.365185722266491 5.080422762784091 2.418094813175582 L 5.080422762784091 2.5795493586301275 L 5.042786399147728 2.5795493586301275 L 5.042786399147728 2.4093675404483093 Q 5.042786399147728 2.360822085902855 5.019331853693182 2.335185722266491 Q 4.9958773082386365 2.3095493586301274 4.954968217329546 2.3095493586301274 Q 4.912968217329546 2.3095493586301274 4.887877308238637 2.337367540448309 Q 4.862786399147728 2.365185722266491 4.862786399147728 2.418094813175582 L 4.862786399147728 2.5795493586301275 L 4.82460458096591 2.5795493586301275 L 4.82460458096591 2.2817311768119457 L 4.862786399147728 2.2817311768119457 L 4.862786399147728 2.333003904084673 Q 4.876968217329546 2.305185722266491 4.903150035511365 2.2907311768119456 Q 4.929331853693182 2.2762766313574003 4.961513671875 2.2762766313574003 Q 5.0002409446022735 2.2762766313574003 5.029422762784091 2.2948220859028545 Q 5.05860458096591 2.313367540448309 5.071695490056818 2.349367540448309 Q 5.083695490056819 2.313912994993764 5.112877308238637 2.295094813175582 Q 5.142059126420455 2.2762766313574003 5.179150035511364 2.2762766313574003 Q 5.231513671875001 2.2762766313574003 5.264513671875001 2.3092766313574002 M 5.650407848011365 2.4453675404483093 L 5.403316938920455 2.4453675404483093 Q 5.404953302556819 2.4791857222664913 5.419680575284092 2.5031857222664913 Q 5.4344078480113645 2.5271857222664913 5.4584078480113645 2.5394584495392185 Q 5.4824078480113645 2.5517311768119457 5.510771484375001 2.5517311768119457 Q 5.54786239346591 2.5517311768119457 5.573226029829546 2.5337311768119455 Q 5.598589666193183 2.5157311768119457 5.606771484375001 2.485185722266491 L 5.647135120738637 2.485185722266491 Q 5.636226029829547 2.5288220859028545 5.600498757102273 2.5563675404483095 Q 5.564771484375001 2.583912994993764 5.510771484375001 2.583912994993764 Q 5.468771484375001 2.583912994993764 5.435498757102273 2.565094813175582 Q 5.402226029829547 2.5462766313574003 5.383407848011364 2.5116402677210368 Q 5.364589666193183 2.4770039040846727 5.364589666193183 2.4306402677210364 Q 5.364589666193183 2.3842766313574 5.383135120738637 2.349367540448309 Q 5.401680575284091 2.3144584495392184 5.434953302556819 2.295912994993764 Q 5.468226029829546 2.277367540448309 5.510771484375001 2.277367540448309 Q 5.553316938920455 2.277367540448309 5.585226029829546 2.295912994993764 Q 5.617135120738637 2.3144584495392184 5.634316938920455 2.3458220859028547 Q 5.6514987571022735 2.377185722266491 5.6514987571022735 2.4153675404483095 Q 5.6514987571022735 2.435003904084673 5.650407848011365 2.4453675404483093 M 5.5994078480113645 2.3575493586301275 Q 5.585498757102274 2.334094813175582 5.561498757102274 2.322094813175582 Q 5.537498757102274 2.310094813175582 5.509135120738637 2.310094813175582 Q 5.466589666193182 2.310094813175582 5.436589666193183 2.337367540448309 Q 5.406589666193183 2.3646402677210365 5.403316938920455 2.4142766313574002 L 5.612771484375001 2.4142766313574002 Q 5.613316938920455 2.381003904084673 5.5994078480113645 2.3575493586301275 M 5.740140181107955 2.560185722266491 Q 5.70768563565341 2.5364584495392184 5.703867453835228 2.4955493586301274 L 5.743140181107955 2.4955493586301274 Q 5.745867453835228 2.5206402677210367 5.766867453835228 2.536185722266491 Q 5.7878674538352275 2.5517311768119457 5.823321999289773 2.5517311768119457 Q 5.854412908380682 2.5517311768119457 5.872140181107955 2.537003904084673 Q 5.889867453835228 2.5222766313574003 5.889867453835228 2.5004584495392184 Q 5.889867453835228 2.485185722266491 5.880049272017046 2.475367540448309 Q 5.870231090198864 2.4655493586301276 5.855231090198864 2.4598220859028546 Q 5.840231090198864 2.454094813175582 5.8145947265625 2.4475493586301273 Q 5.781321999289773 2.4388220859028547 5.7605947265625 2.430094813175582 Q 5.7398674538352275 2.4213675404483093 5.725412908380682 2.404185722266491 Q 5.710958362926137 2.387003904084673 5.710958362926137 2.358094813175582 Q 5.710958362926137 2.3362766313574004 5.724049272017045 2.3177311768119457 Q 5.7371401811079545 2.299185722266491 5.761140181107955 2.2882766313574003 Q 5.785140181107955 2.277367540448309 5.815685635653409 2.277367540448309 Q 5.863685635653409 2.277367540448309 5.893140181107955 2.3016402677210364 Q 5.9225947265625 2.3259129949937636 5.924776544744319 2.3684584495392182 L 5.8865947265625005 2.3684584495392182 Q 5.884958362926136 2.3422766313574 5.866140181107955 2.3261857222664912 Q 5.847321999289773 2.310094813175582 5.8145947265625 2.310094813175582 Q 5.785685635653409 2.310094813175582 5.767685635653409 2.3237311768119455 Q 5.749685635653409 2.337367540448309 5.749685635653409 2.3575493586301275 Q 5.749685635653409 2.375003904084673 5.760321999289773 2.3861857222664913 Q 5.7709583629261365 2.3973675404483092 5.786776544744319 2.4036402677210367 Q 5.8025947265625 2.4099129949937637 5.829321999289773 2.4175493586301275 Q 5.861503817471591 2.4262766313574002 5.8805947265625 2.4344584495392185 Q 5.89968563565341 2.4426402677210364 5.9133219992897725 2.4584584495392185 Q 5.926958362926136 2.4742766313574003 5.9275038174715915 2.5004584495392184 Q 5.9275038174715915 2.5244584495392184 5.914412908380682 2.5432766313574002 Q 5.901321999289773 2.562094813175582 5.877867453835227 2.573003904084673 Q 5.854412908380682 2.583912994993764 5.823867453835227 2.583912994993764 Q 5.772594726562501 2.583912994993764 5.740140181107955 2.560185722266491" fill="#006fbf" fill-rule="nonzero"></path></g></g><defs><clipPath id="SvgjsClipPath117165"><path d=" M -1.1000000000000005 -0.9616402677210367 h 7.183966796875001 v 2.6282805354420735 h -7.183966796875001 Z"></path></clipPath></defs></svg>